/* XPM */
static char const * const cascade_xpm[] = {
"16 16 4 1",
" 	c None",
".	c #6280B7",
"+	c #0000D0",
"@	c #FFFFFF",
"  .....         ",
" .+++++.        ",
".+@@@@@+.       ",
".+@@@@@+..      ",
".+@@@+++++.     ",
".+@@+@@@@@+.    ",
".+@@+@@@@@+..   ",
".+@@+@@@+++++.  ",
" .+++@@+@@@@@+. ",
"  ..+@@+@@@@@+. ",
"    +@@+@@@@@+. ",
"    .+++@@@@@+. ",
"     ..+@@@@@+. ",
"       +@@@@@+. ",
"       .+++++.  ",
"        .....   "};
