/* XPM */
static char * delete_xpm[] = {
"22 22 6 1",
" 	c None",
".	c #FFFFFF",
"+	c #FF0000",
"@	c #808000",
"#	c #800000",
"$	c #C0C0C0",
"                      ",
"                      ",
"   ...............    ",
"  .++++++++++++++@    ",
" .++++++++++++++++#.  ",
" .++++++++++++++++#.  ",
" .+++$.+++++++.$++#.  ",
" .+++...+++++...++#.  ",
" .++++...+++...+++#.  ",
" .+++++...+...++++#.  ",
" .++++++.....+++++#.  ",
" .++++++.....+++++#.  ",
" .+++++...+...++++#.  ",
" .++++...+++...+++#.  ",
" .+++...+++++...++#.  ",
" .+++$.+++++++.$++#.  ",
" .++++++++++++++++#.  ",
" .++++++++++++++++#.  ",
"   @##############    ",
"   ...............    ",
"                      ",
"                      "};
