/* XPM */
static char const * const questeditor_small_xpm[] = {
"16 16 15 1",
" 	c None",
".	c #808000",
"+	c #555500",
"@	c #403000",
"#	c #402000",
"$	c #404000",
"%	c #804000",
"&	c #606000",
"*	c #404020",
"=	c #808040",
"-	c #606020",
";	c #DFDF60",
">	c #C0C040",
",	c #BFBF60",
"'	c #FFFF80",
"  ............  ",
"+@############@+",
"$#%%%%%%%%%%%%#$",
" &*==========*& ",
"  -;>>>>>>>>;,+ ",
"  $'>'>>>>>'''$ ",
"  -';';;;;''',+ ",
" .=;>>>>>>>>'=. ",
" .='>>>>>>>;'=. ",
" +,;>>>>>>>>'-  ",
" $''>>>>>>>;'$  ",
" +,;>>>>>>>>'-  ",
" &*==========*& ",
"$#%%%%%%%%%%%%#$",
"+@############@+",
"  ............  "};
