/* XPM */
static char const * const questeditor_xpm[] = {
"32 32 5 1",
" 	c None",
".	c #808000",
"+	c #000000",
"@	c #804000",
"#	c #FFFF80",
"                                ",
"  . ........................ .  ",
" .+.++++++++++++++++++++++++.+. ",
".+@+@@@@@@@@@@@@@@@@@@@@@@@@+@+.",
".+@+@@@@@@@@@@@@@@@@@@@@@@@@+@+.",
".+@+@@@@@@@@@@@@@@@@@@@@@@@@+@+.",
" .+.++++++++++++++++++++++++.+. ",
"  ..+######################+..  ",
"   .+######################+.   ",
"    .+#..................###+.  ",
"    .+###.##################+.  ",
"    .+###.##..........######+.  ",
"    .+##.####.#.#.#.########+.  ",
"   .+######################+.   ",
"   .+##.................###+.   ",
"   .+######################+.   ",
"   .+###...............####+.   ",
"   .+######################+.   ",
"   .+##.................###+.   ",
"  .+######################+.    ",
"  .+####...............###+.    ",
"  .+######################+.    ",
"  .+###.................##+.    ",
"   .+######################+.   ",
"  ..+######################+..  ",
" .+.++++++++++++++++++++++++.+. ",
".+@+@@@@@@@@@@@@@@@@@@@@@@@@+@+.",
".+@+@@@@@@@@@@@@@@@@@@@@@@@@+@+.",
".+@+@@@@@@@@@@@@@@@@@@@@@@@@+@+.",
" .+.++++++++++++++++++++++++.+. ",
"  . ........................ .  ",
"                                "};
