/* XPM */
static char const * const tile_xpm[] = {
"16 16 4 1",
" 	c None",
".	c #0000D0",
"+	c #FFFFFF",
"@	c #6280B7",
"                ",
"                ",
"  ....    ....  ",
" .++++.  .++++. ",
" .++++.@ .++++.@",
" .++++.@ .++++.@",
" .++++.@ .++++.@",
" .++++.@ .++++.@",
" .++++.@ .++++.@",
" .++++.@ .++++.@",
" .++++.@ .++++.@",
" @....@  @....@ ",
"  @@@@    @@@@  ",
"                ",
"                ",
"                "};
