/* XPM */
static const char *file_opened[] = {
/* columns rows colors chars-per-pixel */
"13 13 16 1",
"  c Gray0",
". c #800000",
"X c #008000",
"o c #808000",
"O c #000080",
"+ c #800080",
"@ c #008080",
"# c #c0c0c0",
"$ c #808080",
"% c Red",
"& c Green",
"* c Yellow",
"= c Blue",
"- c Magenta",
"; c Cyan",
": c Gray100",
/* pixels */
":::::::::::::",
":    ::::::::",
" ####     :::",
" ######### ::",
" ###         ",
" ## ******** ",
" ##:******* :",
" # ******** :",
" # ******* ::",
"  ######## ::",
":         :::",
":::::::::::::",
":::::::::::::"
};
