/* XPM */
static const char *binary_file_icon[] = {
/* columns rows colors chars-per-pixel */
"10 12 3 1",
"  c black",
". c #808080",
"X c white",
/* pixels */
"         X",
" XXXXXXX .",
" X.X...X .",
" X.X.X.X .",
" X.X...X .",
" XXXXXXX .",
" X...X.X .",
" X.X.X.X .",
" X...X.X .",
" XXXXXXX .",
"         .",
"X........."
};
