/* XPM */
static const char *changelist_icon[] = {
/* columns rows colors chars-per-pixel */
"14 13 4 1",
"  c black",
". c red",
"X c #808080",
"o c white",
/* pixels */
"oooooo ooooooo",
"ooooo . Xooooo",
"oooo ... ooooo",
"oooo ... Xoooo",
"ooo ..... Xooo",
"ooo ..... Xooo",
"oo ....... Xoo",
"oo ....... Xoo",
"o ......... Xo",
"o ......... Xo",
" ..........  X",
"             X",
"oXXXXXXXXXXXXX"
};
