/* XPM */
static const char *depot_icon[] = {
/* columns rows colors chars-per-pixel */
"25 12 5 1",
"  c black",
". c yellow",
"X c #808080",
"o c #aca899",
"O c white",
/* pixels */
"OOOOOOOOOOOX  XOOOOOOOOOO",
"OOOOOOOOO   O.   OOOOOOOO",
"OOOOOX   X.O.O.OX   XOOOO",
"OOX  XO.O.O.O.O.O.O.X  XO",
"O .O.O.O.O.O.O.O.O.O.O.O ",
"o O.O.O.O.O.O.O.O.O.O.O. ",
"OXX  O.O.O.O.O.O.O.O    X",
"OOOXXX   .O.O.O.O   XXXXX",
"OOOOOXXXX   .O    XXXXXXO",
"OOOOOOOOXXXX   XXXXXXOOOO",
"OOOOOOOOOOXXXXXXXXXOOOOOO",
"OOOOOOOOOOOOOXXXOOOOOOOOO"
};
