/* XPM */
static const char *folder_icon[] = {
/* columns rows colors chars-per-pixel */
"17 13 5 1",
"  c black",
". c red",
"X c #808080",
"o c #c0c0c0",
"O c white",
/* pixels */
"OOO     OOOOOOOOO",
"OO o.o.o OOOOOOOO",
"O X.X.X.X     OOO",
"O ooooooooooooo X",
"O o.o.o.o.o.o.o X",
"O .o.o.o.o.o.o. X",
"O o.o.o.o.o.o.o X",
"O .o.o.o.o.o.o. X",
"O o.o.o.o.o.o.o X",
"O .o.o.o.o.o.o. X",
"O o.o.o.o.o.o.o X",
"OO              X",
"OOOXXXXXXXXXXXXXX"
};
