/* XPM */
static char * resetproperty_xpm[] = {
"7 6 2 1",
" 	c None",
".	c #910000",
"   .   ",
"  ..   ",
" ......",
"  ..  .",
"   .  .",
"     . "};
