/* XPM */
static char const * const NpcEditor_xpm[] = {
"16 16 6 1",
" 	c None",
".	c #000000",
"+	c #404040",
"@	c #808080",
"#	c #BFBFBF",
"$	c #FFFFFF",
"  ....+@@+....  ",
" ....@#@@#@.... ",
".....$....$.....",
".....#+..+#.....",
".....+#$$#+.....",
".......@@...@@..",
".....+@##@#$@...",
"...@$#@##@+.....",
"..@@...@@.......",
".......@@.......",
".......@@.......",
"......@@@@......",
".....@@..@@.....",
"....@@....@@....",
" ..@@+....+@@.. ",
"  .@+......+@.  "};
